<?xml version="1.0" standalone="no"?>
<svg xmlns:xlink="http://www.w3.org/1999/xlink" id="wave" style="transform:rotate(0deg); transition: 0.3s" viewBox="0 0 1440 400" version="1.1" xmlns="http://www.w3.org/2000/svg"><defs><linearGradient id="sw-gradient-0" x1="0" x2="0" y1="1" y2="0"><stop stop-color="rgba(77.783, 116.472, 25.026, 1)" offset="0%"/><stop stop-color="rgba(118.83, 155.177, 69.265, 1)" offset="100%"/></linearGradient></defs><path style="transform:translate(0, 0px); opacity:1" fill="url(#sw-gradient-0)" d="M0,120L26.7,113.3C53.3,107,107,93,160,80C213.3,67,267,53,320,53.3C373.3,53,427,67,480,86.7C533.3,107,587,133,640,146.7C693.3,160,747,160,800,173.3C853.3,187,907,213,960,226.7C1013.3,240,1067,240,1120,240C1173.3,240,1227,240,1280,253.3C1333.3,267,1387,293,1440,286.7C1493.3,280,1547,240,1600,186.7C1653.3,133,1707,67,1760,66.7C1813.3,67,1867,133,1920,133.3C1973.3,133,2027,67,2080,46.7C2133.3,27,2187,53,2240,100C2293.3,147,2347,213,2400,246.7C2453.3,280,2507,280,2560,293.3C2613.3,307,2667,333,2720,326.7C2773.3,320,2827,280,2880,253.3C2933.3,227,2987,213,3040,233.3C3093.3,253,3147,307,3200,313.3C3253.3,320,3307,280,3360,253.3C3413.3,227,3467,213,3520,220C3573.3,227,3627,253,3680,266.7C3733.3,280,3787,280,3813,280L3840,280L3840,400L3813.3,400C3786.7,400,3733,400,3680,400C3626.7,400,3573,400,3520,400C3466.7,400,3413,400,3360,400C3306.7,400,3253,400,3200,400C3146.7,400,3093,400,3040,400C2986.7,400,2933,400,2880,400C2826.7,400,2773,400,2720,400C2666.7,400,2613,400,2560,400C2506.7,400,2453,400,2400,400C2346.7,400,2293,400,2240,400C2186.7,400,2133,400,2080,400C2026.7,400,1973,400,1920,400C1866.7,400,1813,400,1760,400C1706.7,400,1653,400,1600,400C1546.7,400,1493,400,1440,400C1386.7,400,1333,400,1280,400C1226.7,400,1173,400,1120,400C1066.7,400,1013,400,960,400C906.7,400,853,400,800,400C746.7,400,693,400,640,400C586.7,400,533,400,480,400C426.7,400,373,400,320,400C266.7,400,213,400,160,400C106.7,400,53,400,27,400L0,400Z"/></svg>